<?xml version="1.0"?>
<svg xmlns="http://www.w3.org/2000/svg" xmlns:xlink="http://www.w3.org/1999/xlink" xmlns:svgjs="http://svgjs.com/svgjs" version="1.1" width="512" height="512" x="0" y="0" viewBox="0 0 512 512" style="enable-background:new 0 0 512 512" xml:space="preserve" class=""><g><linearGradient xmlns="http://www.w3.org/2000/svg" id="a" gradientUnits="userSpaceOnUse" x1="20.659" x2="531.994" y1="541.474" y2="30.138" data-name="New Gradient Swatch 1"><stop stop-opacity="1" stop-color="#11458e" offset="0"/><stop stop-opacity="1" stop-color="#4191a8" offset="0.518"/><stop stop-opacity="1" stop-color="#f2f2e9" offset="1"/></linearGradient><path xmlns="http://www.w3.org/2000/svg" d="m496 392h-32v-244a28.031 28.031 0 0 0 -28-28h-10.46a47.96 47.96 0 0 0 -41.54-72h-264a8 8 0 0 0 -8 8v24a8 8 0 0 0 8 8h8v16h-8a8 8 0 0 0 -8 8v8h-36a28.031 28.031 0 0 0 -28 28v244h-32a8 8 0 0 0 -8 8v44a28.031 28.031 0 0 0 28 28h440a28.031 28.031 0 0 0 28-28v-44a8 8 0 0 0 -8-8zm-368-272h256a24 24 0 0 0 0-48h-256v-8h256a32 32 0 0 1 0 64h-256zm16-16v-16h240a8 8 0 0 1 0 16zm-32 40h256a32 32 0 0 1 0 64h-256v-8h256a24 24 0 0 0 0-48h-256zm296 64h-4.26a47.9 47.9 0 0 0 9.51-48h10.75v208h-20.26a47.892 47.892 0 0 0 0-64h4.26a8 8 0 0 0 8-8v-24a8 8 0 0 0 -8-8h-8v-16h8a8 8 0 0 0 8-8v-24a8 8 0 0 0 -8-8zm-264 24a24 24 0 0 0 0 48h256v8h-256a32 32 0 0 1 0-64h256v8zm240 16v16h-240a8 8 0 0 1 0-16zm-16 112a24 24 0 0 0 0-48h-256v-8h256a32 32 0 0 1 0 64h-256v-8zm-240-16v-16h240a8 8 0 0 1 0 16zm0-160v-16h240a8 8 0 0 1 0 16zm-24-16h8v16h-8a8 8 0 0 0 -8 8v24a8 8 0 0 0 8 8h4.26a47.892 47.892 0 0 0 0 64h-4.26a8 8 0 0 0 -8 8v24a8 8 0 0 0 8 8h8v16h-8a8 8 0 0 0 -8 8v16h-8v-208h8a8 8 0 0 0 8 8zm-40-20a12.01 12.01 0 0 1 12-12h20v8h-16a8 8 0 0 0 -8 8v224a8 8 0 0 0 8 8h352a8 8 0 0 0 8-8v-224a8 8 0 0 0 -8-8h-24a7.95 7.95 0 0 0 -3.54.83 49.794 49.794 0 0 0 -3.69-3.86 47.888 47.888 0 0 0 9.72-4.97h25.51a12.01 12.01 0 0 1 12 12v244h-384zm236.9 260-2.67 8h-84.46l-2.67-8zm187.1 36a12.01 12.01 0 0 1 -12 12h-440a12.01 12.01 0 0 1 -12-12v-36h170.23l6.18 18.53a8 8 0 0 0 7.59 5.47h96a8 8 0 0 0 7.59-5.47l6.18-18.53h170.23z" fill="url(#a)" data-original="url(#a)" style="" class=""/></g></svg>
